# xmcd
#
# Track frame offsets:
#	150
#	18667
#	39270
#	59324
#	81713
#	100623
#	118514
#	137671
#	157208
#	180313
#
# Disc length: 2616 seconds
#
# Revision: 0
# Processed by: cddbd v1.4PL0 Copyright (c) Steve Scherf et al.
# Submitted via: dBpowerAMP V4.0
#
DISCID=7f0a360a
DTITLE=Wilson Meadows - Choices
DYEAR=1900
DGENRE=Blues
TTITLE0=If You Can't Hold Your Love
TTITLE1=I'm Falling
TTITLE2=Go On And Cry
TTITLE3=Keep It Alive
TTITLE4=Still My Love-I Told You
TTITLE5=I Can't Understand
TTITLE6=I'm Changing
TTITLE7=Big Catch
TTITLE8=Don't Take It Away
TTITLE9=This Time
EXTD=
EXTT0=
EXTT1=
EXTT2=
EXTT3=
EXTT4=
EXTT5=
EXTT6=
EXTT7=
EXTT8=
EXTT9=
PLAYORDER=
